<svg width="139" height="34" viewBox="0 0 139 34" fill="none" xmlns="http://www.w3.org/2000/svg">
<g filter="url(#filter0_d_1_103)">
<path d="M17.925 7.1C17.925 8.11667 17.6917 9.05 17.225 9.9C16.7583 10.7333 16.0417 11.4083 15.075 11.925C14.1083 12.4417 12.9083 12.7 11.475 12.7H8.825V19H4.55V1.45H11.475C12.875 1.45 14.0583 1.69167 15.025 2.175C15.9917 2.65833 16.7167 3.325 17.2 4.175C17.6833 5.025 17.925 6 17.925 7.1ZM11.15 9.3C11.9667 9.3 12.575 9.10833 12.975 8.725C13.375 8.34167 13.575 7.8 13.575 7.1C13.575 6.4 13.375 5.85833 12.975 5.475C12.575 5.09167 11.9667 4.9 11.15 4.9H8.825V9.3H11.15ZM25.8256 19.2C24.6089 19.2 23.5256 18.9917 22.5756 18.575C21.6256 18.1583 20.8756 17.5917 20.3256 16.875C19.7756 16.1417 19.4673 15.325 19.4006 14.425H23.6256C23.6756 14.9083 23.9006 15.3 24.3006 15.6C24.7006 15.9 25.1923 16.05 25.7756 16.05C26.3089 16.05 26.7173 15.95 27.0006 15.75C27.3006 15.5333 27.4506 15.2583 27.4506 14.925C27.4506 14.525 27.2423 14.2333 26.8256 14.05C26.4089 13.85 25.7339 13.6333 24.8006 13.4C23.8006 13.1667 22.9673 12.925 22.3006 12.675C21.6339 12.4083 21.0589 12 20.5756 11.45C20.0923 10.8833 19.8506 10.125 19.8506 9.175C19.8506 8.375 20.0673 7.65 20.5006 7C20.9506 6.33333 21.6006 5.80833 22.4506 5.425C23.3173 5.04167 24.3423 4.85 25.5256 4.85C27.2756 4.85 28.6506 5.28333 29.6506 6.15C30.6673 7.01667 31.2506 8.16667 31.4006 9.6H27.4506C27.3839 9.11667 27.1673 8.73333 26.8006 8.45C26.4506 8.16667 25.9839 8.025 25.4006 8.025C24.9006 8.025 24.5173 8.125 24.2506 8.325C23.9839 8.50833 23.8506 8.76667 23.8506 9.1C23.8506 9.5 24.0589 9.8 24.4756 10C24.9089 10.2 25.5756 10.4 26.4756 10.6C27.5089 10.8667 28.3506 11.1333 29.0006 11.4C29.6506 11.65 30.2173 12.0667 30.7006 12.65C31.2006 13.2167 31.4589 13.9833 31.4756 14.95C31.4756 15.7667 31.2423 16.5 30.7756 17.15C30.3256 17.7833 29.6673 18.2833 28.8006 18.65C27.9506 19.0167 26.9589 19.2 25.8256 19.2ZM48.341 5.05L39.591 25.625H34.991L38.191 18.525L32.516 5.05H37.291L40.516 13.775L43.716 5.05H48.341ZM49.0369 12.025C49.0369 10.575 49.3286 9.30833 49.9119 8.225C50.5119 7.14167 51.3369 6.30833 52.3869 5.725C53.4536 5.14167 54.6702 4.85 56.0369 4.85C57.7869 4.85 59.2452 5.30833 60.4119 6.225C61.5952 7.14167 62.3702 8.43333 62.7369 10.1H58.1869C57.8036 9.03333 57.0619 8.5 55.9619 8.5C55.1786 8.5 54.5536 8.80833 54.0869 9.425C53.6202 10.025 53.3869 10.8917 53.3869 12.025C53.3869 13.1583 53.6202 14.0333 54.0869 14.65C54.5536 15.25 55.1786 15.55 55.9619 15.55C57.0619 15.55 57.8036 15.0167 58.1869 13.95H62.7369C62.3702 15.5833 61.5952 16.8667 60.4119 17.8C59.2286 18.7333 57.7702 19.2 56.0369 19.2C54.6702 19.2 53.4536 18.9083 52.3869 18.325C51.3369 17.7417 50.5119 16.9083 49.9119 15.825C49.3286 14.7417 49.0369 13.475 49.0369 12.025ZM73.5986 4.9C75.1986 4.9 76.482 5.43333 77.4486 6.5C78.4153 7.55 78.8986 9 78.8986 10.85V19H74.6486V11.425C74.6486 10.4917 74.407 9.76667 73.9236 9.25C73.4403 8.73333 72.7903 8.475 71.9736 8.475C71.157 8.475 70.507 8.73333 70.0236 9.25C69.5403 9.76667 69.2986 10.4917 69.2986 11.425V19H65.0236V0.5H69.2986V6.925C69.732 6.30833 70.3236 5.81667 71.0736 5.45C71.8236 5.08333 72.6653 4.9 73.5986 4.9ZM88.2193 19.2C86.8527 19.2 85.6193 18.9083 84.5193 18.325C83.436 17.7417 82.5777 16.9083 81.9443 15.825C81.3277 14.7417 81.0193 13.475 81.0193 12.025C81.0193 10.5917 81.336 9.33333 81.9693 8.25C82.6027 7.15 83.4693 6.30833 84.5693 5.725C85.6693 5.14167 86.9027 4.85 88.2693 4.85C89.636 4.85 90.8693 5.14167 91.9693 5.725C93.0693 6.30833 93.936 7.15 94.5693 8.25C95.2027 9.33333 95.5193 10.5917 95.5193 12.025C95.5193 13.4583 95.1943 14.725 94.5443 15.825C93.911 16.9083 93.036 17.7417 91.9193 18.325C90.8193 18.9083 89.586 19.2 88.2193 19.2ZM88.2193 15.5C89.036 15.5 89.7277 15.2 90.2943 14.6C90.8777 14 91.1693 13.1417 91.1693 12.025C91.1693 10.9083 90.886 10.05 90.3193 9.45C89.7693 8.85 89.086 8.55 88.2693 8.55C87.436 8.55 86.7443 8.85 86.1943 9.45C85.6443 10.0333 85.3693 10.8917 85.3693 12.025C85.3693 13.1417 85.636 14 86.1693 14.6C86.7193 15.2 87.4027 15.5 88.2193 15.5Z" fill="white"/>
<path d="M108.712 15.9H102.162L101.112 19H96.6373L102.987 1.45H107.937L114.287 19H109.762L108.712 15.9ZM107.612 12.6L105.437 6.175L103.287 12.6H107.612ZM120.495 7.375C120.995 6.60833 121.62 6.00833 122.37 5.575C123.12 5.125 123.953 4.9 124.87 4.9V9.425H123.695C122.628 9.425 121.828 9.65833 121.295 10.125C120.762 10.575 120.495 11.375 120.495 12.525V19H116.22V5.05H120.495V7.375ZM134.688 15.375V19H132.513C130.963 19 129.755 18.625 128.888 17.875C128.022 17.1083 127.588 15.8667 127.588 14.15V8.6H125.888V5.05H127.588V1.65H131.863V5.05H134.663V8.6H131.863V14.2C131.863 14.6167 131.963 14.9167 132.163 15.1C132.363 15.2833 132.697 15.375 133.163 15.375H134.688Z" fill="url(#paint0_linear_1_103)"/>
</g>
<defs>
<filter id="filter0_d_1_103" x="0.549988" y="0.5" width="138.138" height="33.125" filterUnits="userSpaceOnUse" color-interpolation-filters="sRGB">
<feFlood flood-opacity="0" result="BackgroundImageFix"/>
<feColorMatrix in="SourceAlpha" type="matrix" values="0 0 0 0 0 0 0 0 0 0 0 0 0 0 0 0 0 0 127 0" result="hardAlpha"/>
<feOffset dy="4"/>
<feGaussianBlur stdDeviation="2"/>
<feComposite in2="hardAlpha" operator="out"/>
<feColorMatrix type="matrix" values="0 0 0 0 0 0 0 0 0 0 0 0 0 0 0 0 0 0 0.25 0"/>
<feBlend mode="normal" in2="BackgroundImageFix" result="effect1_dropShadow_1_103"/>
<feBlend mode="normal" in="SourceGraphic" in2="effect1_dropShadow_1_103" result="shape"/>
</filter>
<linearGradient id="paint0_linear_1_103" x1="116.05" y1="-9" x2="105.765" y2="44.3302" gradientUnits="userSpaceOnUse">
<stop stop-color="#B75CFF"/>
<stop offset="1" stop-color="#671AE4"/>
</linearGradient>
</defs>
</svg>
